<svg version="1.1" id="Layer_1" xmlns="http://www.w3.org/2000/svg" xmlns:xlink="http://www.w3.org/1999/xlink" x="0px" y="0px"
	 viewBox="0 0 286.667 66.667" style="enable-background:new 0 0 286.667 66.667;" xml:space="preserve">
<style type="text/css">
	.st0{fill:#ffffff;stroke:#FF9933;stroke-width:2;stroke-miterlimit:5;}
	.st1{fill:#ffffff;stroke:#FF9933;stroke-width:1;}

	<defs>
	<style>
		.st0{
			stroke-dasharray: 800;
			stroke-dashoffset: 0;
			-webkit-animation: dash 6s linear forwards;
			-o-animation: dash 6s linear forwards;
			-moz-animation: dash 6s linear forwards;
		}
		.st1{
			stroke-dasharray: 800;
			stroke-dashoffset: 0;
			-webkit-animation: dash 6s linear forwards;
			-o-animation: dash 6s linear forwards;
			-moz-animation: dash 6s linear forwards;
		}

		@-webkit-keyframes dash {
			from {
				stroke-dashoffset:800;
				fill-opacity:0;
				stroke-width:0.7;
			} to {
				stroke-dashoffset:0;
				stroke-width:0;
				fill-opacity:1;
			}
		}
	</style>
</defs>
</style>


<g id="XMLID_3_">
	<path id="XMLID_4_" class="st0" d="M45.415,22.348c-3.696,0-23.213,21.501-23.213,26.414c0,1.308-4.147,0.677-4.147-3.605
		c0-12.126,20.644-31.192,20.644-36.827c0-1.848-1.667-3.471-4.597-3.471c-5.995,0-21.05,8.474-21.05,17.624
		c0,2.434,2.028,3.876,4.913,3.876c1.667,0,3.11-0.496,3.741-1.803c0.946-1.983-1.533-3.966-1.442-4.146
		c0.135-0.271,0.315-0.451,0.586-0.496c0.541-0.09,1.127,0.361,1.127,0.361c0.045,0,0.496,0.406,0.811,1.172
		c0.315,0.676,0.541,1.803-0.135,3.245c-0.992,2.164-3.561,3.381-6.355,3.381c-5.184,0-8.293-3.02-8.293-6.761
		c0-8.068,13.748-18.03,26.549-18.03c6.716,0,7.618,5.95,7.618,8.564c0,6.807-12.756,19.202-12.756,21.095
		c0,0,15.28-15.1,17.399-15.1c2.118,0,2.93,3.921,2.93,5.319c0,2.794-10.683,12.486-10.683,19.923c0,8.609,3.245,17.67,9.42,17.67
		c6.22,0,7.663-5.814,7.663-5.814s0-1.578,1.758-1.578c1.442,0,0.856,2.524,0.856,2.524s-2.163,6.806-9.826,6.806
		c-7.663,0-14.649-8.834-14.649-20.824C34.282,32.671,45.415,22.348,45.415,22.348z"/>
	<path id="XMLID_6_" class="st0" d="M62.997,28.118c-5.274,0-17.264,15.326-14.018,15.326c1.082,0,10.412-10.323,9.961-11.134
		c-0.496-0.811,3.2-0.135,3.2,3.156c0,3.29-4.237,8.023-2.795,8.023c1.397,0,8.159-7.438,12.125-13.433
		c0.676-0.992,2.029-0.541,1.082,0.946c-0.992,1.442-10.412,14.83-14.514,14.83c-1.848,0-3.651-2.795-3.651-3.922
		c0-1.081,0.766-2.749,0.766-2.749s-5.679,6.671-7.347,6.671c-1.623,0-4.237-2.073-4.237-5.273c0-5.229,10.953-17.219,16.001-17.219
		C62.23,23.34,63.989,28.118,62.997,28.118z"/>
	<path id="XMLID_8_" class="st0" d="M78.595,27.712c0,4.192-9.511,14.695-7.122,14.695c2.389,0,16.227-15.281,16.227-21.952
		c0-4.823-4.282-6.085-4.282-6.085s-0.135,0.225-0.947,0.225c-1.397,0-1.667-1.352,0.406-1.352c2.028,0,9.511,2.93,9.511,9.961
		S74.538,43.174,73.322,44.39c-0.586,0.586-1.217,1.442-2.479,1.442c-2.704,0-3.831-3.651-3.831-5.95
		c0-3.29,6.536-11.043,6.536-16.182C73.547,22.619,78.595,23.52,78.595,27.712z"/>
	<path id="XMLID_10_" class="st0" d="M105.868,28.118c-5.274,0-17.264,15.326-14.019,15.326c1.082,0,10.412-10.323,9.962-11.134
		c-0.496-0.811,3.2-0.135,3.2,3.156c0,3.29-4.237,8.023-2.795,8.023c1.397,0,8.158-7.438,12.125-13.433
		c0.677-0.992,2.028-0.541,1.082,0.946c-0.991,1.442-10.412,14.83-14.514,14.83c-1.848,0-3.651-2.795-3.651-3.922
		c0-1.081,0.766-2.749,0.766-2.749s-5.679,6.671-7.347,6.671c-1.623,0-4.237-2.073-4.237-5.273c0-5.229,10.953-17.219,16.001-17.219
		C105.101,23.34,106.859,28.118,105.868,28.118z"/>
	<path id="XMLID_12_" class="st0" d="M132.329,55.343c0,0-1.217,3.2-5.95,3.2c-4.732,0-11.088-4.327-11.088-13.071
		c0-6.355,3.966-13.252,6.13-16.543c-1.308,0.586-3.606,1.352-6.175,1.352c-1.263,0-3.472-0.721-3.472-5.679
		c0-7.077,5.364-12.08,8.475-12.08c1.668,0,3.064,1.082,3.064,2.93c0,3.651-6.265,12.08-6.265,12.08s5.995-3.11,6.941-3.651
		c0.631-0.361,1.172-1.037,1.938-0.406c0.721,0.631,4.281,3.246,2.253,5.544c-2.073,2.344-8.113,10.639-8.113,18.437
		s4.282,9.735,6.941,9.735c2.66,0,3.922-1.127,4.372-1.938C131.878,54.442,132.329,55.343,132.329,55.343z M116.012,26.856
		c2.614-4.778,5.409-9.06,3.877-9.06c-1.533,0-4.688,4.417-4.688,6.626C115.201,25.999,116.012,26.856,116.012,26.856z"/>
	<path id="XMLID_15_" class="st0" d="M144.41,28.118c-5.273,0-17.264,15.326-14.018,15.326c1.082,0,10.412-10.323,9.961-11.134
		c-0.495-0.811,3.2-0.135,3.2,3.156c0,3.29-4.236,8.023-2.794,8.023c1.397,0,8.158-7.438,12.125-13.433
		c0.676-0.992,2.028-0.541,1.081,0.946c-0.991,1.442-10.412,14.83-14.514,14.83c-1.848,0-3.651-2.795-3.651-3.922
		c0-1.081,0.767-2.749,0.767-2.749s-5.68,6.671-7.347,6.671c-1.623,0-4.237-2.073-4.237-5.273c0-5.229,10.953-17.219,16.001-17.219
		C143.644,23.34,145.402,28.118,144.41,28.118z"/>
	<path id="XMLID_17_" class="st0" d="M149.01,38.305c0-4.147,7.617-15.101,11.179-15.101c1.397,0,1.758,1.668,1.758,1.668
		c0-0.406,1.983-1.713,1.983-2.614c0-0.812,1.938,0.451,1.938,4.011c0,5.048-3.064,3.787-3.064,8.339
		c-3.245,0-3.606-5.048-3.606-5.048s-5.273,5.319-5.273,11.089c0,2.118,1.262,2.84,2.434,2.84c1.397,0,9.421-7.708,13.433-13.703
		c0.676-0.992,2.028-0.541,1.082,0.946c-0.992,1.442-11.72,15.101-15.821,15.101C150.542,45.833,149.01,42.452,149.01,38.305z"/>
	<path id="XMLID_19_" class="st0" d="M175.516,39.432c0-2.614,6.491-12.036,6.491-12.036s-14.92,13.433-14.92,17.669
		c0,1.758-3.831-0.09-3.831-3.064c0-4.553,17.354-27.586,17.354-32.635c0-0.901,3.516,0.947,3.516,4.688
		c0,3.786-11.494,19.652-11.494,19.652s10.683-10.277,12.531-10.277c1.848,0,2.479,2.569,2.479,4.733
		c0,2.208-10.817,15.326-6.58,15.326c1.352,0,8.429-7.438,12.44-13.433c0.676-0.992,2.028-0.541,1.036,0.946
		c-0.946,1.442-10.728,14.83-14.829,14.83C176.779,45.833,175.516,42.047,175.516,39.432z"/>
	<path id="XMLID_21_" class="st0" d="M206.8,28.118c-5.273,0-17.264,15.326-14.018,15.326c1.082,0,10.412-10.323,9.961-11.134
		c-0.495-0.811,3.2-0.135,3.2,3.156c0,3.29-4.236,8.023-2.794,8.023c1.397,0,8.158-7.438,12.125-13.433
		c0.676-0.992,2.028-0.541,1.081,0.946c-0.991,1.442-10.412,14.83-14.514,14.83c-1.848,0-3.651-2.795-3.651-3.922
		c0-1.081,0.767-2.749,0.767-2.749s-5.68,6.671-7.347,6.671c-1.623,0-4.237-2.073-4.237-5.273c0-5.229,10.953-17.219,16.001-17.219
		C206.035,23.34,207.792,28.118,206.8,28.118z"/>
	<path id="XMLID_23_" class="st0" d="M219.919,40.108c0-3.786,6.671-12.801,6.671-12.801c-1.487,0-14.378,15.01-14.378,17.128
		c0,3.336-3.065,0-3.065-3.561c0-3.696,8.925-13.027,8.925-17.535c0-1.578,3.29,0.135,3.29,4.643c0,2.209-1.532,3.696-1.532,3.696
		s8.203-8.339,9.736-8.339c1.577,0,2.523,2.299,2.523,4.507c0,2.209-10.547,15.687-8.474,15.687c2.704,0,9.285-7.753,13.297-13.748
		c0.631-0.992,1.983-0.541,1.037,0.946c-0.946,1.442-10.503,15.101-14.965,15.101C221.227,45.833,219.919,43.489,219.919,40.108z"/>
	<path id="XMLID_25_" class="st0" d="M249.852,28.118c-5.273,0-17.263,15.326-14.018,15.326c1.081,0,10.412-10.323,9.961-11.134
		c-0.495-0.811,3.2-0.135,3.2,3.156c0,3.29-4.236,8.023-2.794,8.023c1.397,0,8.158-7.438,12.125-13.433
		c0.676-0.992,2.028-0.541,1.081,0.946c-0.991,1.442-10.412,14.83-14.514,14.83c-1.848,0-3.65-2.795-3.65-3.922
		c0-1.081,0.766-2.749,0.766-2.749s-5.68,6.671-7.347,6.671c-1.623,0-4.237-2.073-4.237-5.273c0-5.229,10.953-17.219,16.001-17.219
		C249.086,23.34,250.844,28.118,249.852,28.118z"/>
	<path id="XMLID_27_" class="st0" d="M271.58,28.118c-5.273,0-17.263,15.326-14.018,15.326c1.081,0,10.412-10.323,9.961-11.134
		c-0.495-0.811,3.2-0.135,3.2,3.156c0,3.29-4.236,8.023-2.794,8.023c1.397,0,8.158-7.438,12.125-13.433
		c0.676-0.992,2.028-0.541,1.081,0.946c-0.991,1.442-10.412,14.83-14.514,14.83c-1.848,0-3.65-2.795-3.65-3.922
		c0-1.081,0.766-2.749,0.766-2.749s-5.68,6.671-7.347,6.671c-1.623,0-4.237-2.073-4.237-5.273c0-5.229,10.953-17.219,16.001-17.219
		C270.815,23.34,272.573,28.118,271.58,28.118z"/>
</g>
<g id="XMLID_1_">
	<path id="XMLID_29_" class="st1" d="M251.494,14.042v2.291h-7.379l0.002-1.917c2.186-3.575,3.484-5.787,3.897-6.636
		c0.412-0.85,0.618-1.512,0.618-1.988c0-0.365-0.063-0.638-0.188-0.817c-0.124-0.18-0.314-0.27-0.569-0.27s-0.444,0.1-0.569,0.299
		c-0.124,0.199-0.187,0.595-0.187,1.187v1.278h-3.005v-0.49c0-0.752,0.038-1.346,0.116-1.781c0.077-0.434,0.269-0.862,0.572-1.282
		c0.305-0.42,0.7-0.739,1.188-0.955c0.486-0.216,1.07-0.324,1.751-0.324c1.334,0,2.343,0.331,3.026,0.992
		c0.683,0.661,1.024,1.498,1.024,2.511c0,0.769-0.192,1.583-0.577,2.44s-1.518,2.678-3.399,5.462H251.494z"/>
	<path id="XMLID_31_" class="st1" d="M260.708,7.443v4.482c0,1.018-0.055,1.76-0.166,2.225c-0.11,0.465-0.34,0.899-0.688,1.303
		s-0.77,0.694-1.262,0.872c-0.493,0.177-1.043,0.266-1.652,0.266c-0.802,0-1.469-0.093-2-0.278
		c-0.531-0.186-0.955-0.475-1.271-0.868s-0.539-0.807-0.672-1.241c-0.133-0.435-0.199-1.125-0.199-2.071v-4.69
		c0-1.234,0.106-2.158,0.319-2.772s0.637-1.107,1.271-1.478c0.633-0.371,1.401-0.556,2.303-0.556c0.736,0,1.395,0.129,1.976,0.386
		c0.581,0.258,1.016,0.572,1.304,0.942c0.287,0.371,0.482,0.789,0.585,1.253S260.708,6.425,260.708,7.443z M257.355,6.314
		c0-0.714-0.034-1.161-0.104-1.34c-0.069-0.18-0.231-0.27-0.485-0.27c-0.249,0-0.414,0.095-0.494,0.287
		c-0.08,0.19-0.12,0.632-0.12,1.324v6.558c0,0.78,0.037,1.25,0.112,1.411c0.074,0.161,0.236,0.241,0.485,0.241
		s0.412-0.094,0.489-0.282c0.078-0.188,0.116-0.611,0.116-1.27V6.314z"/>
	<path id="XMLID_34_" class="st1" d="M267.083,2.894v13.439h-3.354V9.128c0-1.041-0.024-1.666-0.074-1.876s-0.187-0.369-0.411-0.478
		c-0.224-0.107-0.724-0.162-1.498-0.162h-0.332V5.046c1.621-0.349,2.853-1.066,3.693-2.152H267.083z"/>
	<path id="XMLID_36_" class="st1" d="M276.439,6.464h-3.354c0-0.625-0.007-1.02-0.021-1.183c-0.015-0.163-0.081-0.3-0.199-0.411
		c-0.119-0.111-0.281-0.166-0.486-0.166c-0.171,0-0.313,0.053-0.423,0.158c-0.111,0.105-0.175,0.241-0.191,0.407
		s-0.024,0.501-0.024,1.004v2.142c0.171-0.36,0.423-0.629,0.755-0.81c0.332-0.18,0.742-0.27,1.229-0.27
		c0.614,0,1.157,0.166,1.627,0.498c0.471,0.332,0.77,0.73,0.896,1.195c0.128,0.465,0.191,1.093,0.191,1.884v1.071
		c0,0.941-0.036,1.641-0.108,2.1c-0.071,0.459-0.264,0.884-0.576,1.274c-0.313,0.391-0.742,0.693-1.287,0.909
		s-1.18,0.324-1.905,0.324c-0.901,0-1.641-0.125-2.216-0.374c-0.576-0.249-1.02-0.607-1.332-1.075
		c-0.313-0.467-0.496-0.958-0.548-1.473c-0.053-0.515-0.079-1.514-0.079-2.997V8.813c0-1.599,0.023-2.669,0.07-3.208
		c0.047-0.54,0.239-1.05,0.577-1.532c0.337-0.481,0.798-0.842,1.382-1.083c0.584-0.24,1.258-0.361,2.021-0.361
		c0.94,0,1.713,0.152,2.315,0.457c0.604,0.304,1.035,0.733,1.295,1.287C276.309,4.925,276.439,5.622,276.439,6.464z M273.085,10.655
		c0-0.476-0.053-0.802-0.158-0.979c-0.104-0.177-0.276-0.266-0.515-0.266c-0.232,0-0.402,0.084-0.51,0.253
		c-0.108,0.169-0.162,0.5-0.162,0.992v2.432c0,0.592,0.051,0.979,0.153,1.162s0.272,0.274,0.511,0.274
		c0.144,0,0.293-0.07,0.448-0.212c0.154-0.141,0.232-0.521,0.232-1.141V10.655z"/>
</g>
<g id="XMLID_90_">
</g>
<g id="XMLID_91_">
</g>
<g id="XMLID_92_">
</g>
<g id="XMLID_93_">
</g>
<g id="XMLID_94_">
</g>
<g id="XMLID_95_">
</g>
<g id="XMLID_96_">
</g>
<g id="XMLID_97_">
</g>
<g id="XMLID_98_">
</g>
<g id="XMLID_99_">
</g>
<g id="XMLID_100_">
</g>
<g id="XMLID_101_">
</g>
<g id="XMLID_102_">
</g>
<g id="XMLID_103_">
</g>
<g id="XMLID_104_">
</g>
</svg>
